<svg aria-hidden="true" style="width:0;height:0;position:absolute;overflow:hidden" xmlns="http://www.w3.org/2000/svg"><defs><symbol id="icon-close-outline" viewBox="0 0 32 32"><path stroke-linejoin="round" stroke-linecap="round" stroke-width="1.333" d="M23 23 9 9m14 0L9 23"/></symbol><symbol id="icon-moon" viewBox="0 0 32 32"><path fill="none" stroke="#fff" style="stroke:var(--color2,#fff)" stroke-linejoin="round" stroke-linecap="round" stroke-width="2.133" d="M2.189 16.585c.515 7.14 6.772 12.948 14.261 13.267 5.283.222 10.008-2.163 12.843-5.92 1.174-1.539.544-2.565-1.417-2.218-.959.166-1.947.236-2.978.194-7.002-.277-12.729-5.947-12.757-12.643a11.998 11.998 0 0 1 1.074-5.06c.773-1.719-.157-2.537-1.947-1.802-5.67 2.315-9.55 7.847-9.078 14.182z"/></symbol><symbol id="icon-search" viewBox="0 0 32 32"><path fill="none" style="stroke:var(--color2,#fff)" stroke-linejoin="round" stroke-linecap="round" stroke-width="2.08" d="M14.667 25.333c5.891 0 10.667-4.776 10.667-10.667S20.558 3.999 14.667 3.999 4 8.775 4 14.666s4.776 10.667 10.667 10.667zM28 28l-5.8-5.8"/></symbol><symbol id="icon-star" viewBox="0 0 32 32"><path d="M24.626 30.001a.999.999 0 0 1-.587-.188l-8.038-5.827-8.038 5.827a1.004 1.004 0 0 1-1.18-.004 1.003 1.003 0 0 1-.354-1.126l3.135-9.286-8.125-5.572A.999.999 0 0 1 2.002 12h10.024l3.025-9.309A.996.996 0 0 1 16.002 2a1.002 1.002 0 0 1 .951.691l3.025 9.313h10.024a1 1 0 0 1 .566 1.825l-8.128 5.569 3.133 9.283a1 1 0 0 1-.945 1.32z"/></symbol><symbol id="icon-chevron-down" viewBox="0 0 32 32"><path fill="none" stroke="#fff" style="stroke:var(--color1,#fff)" stroke-linejoin="round" stroke-linecap="round" stroke-width="2" d="m7 11.5 9 9 9-9"/></symbol><symbol id="icon-favorite" viewBox="0 0 34 32"><path fill="#f87719" style="fill:var(--color1,#f87719)" d="m17.231 31.705-2.412-2.412C5.859 21.367.001 16.025.001 9.478.001 4.136 4.136.001 9.478.001c2.929 0 5.858 1.378 7.754 3.618 1.895-2.24 4.825-3.618 7.754-3.618 5.342 0 9.477 4.135 9.477 9.477 0 6.548-5.858 11.889-14.818 19.815l-2.412 2.412z"/></symbol><symbol id="icon-linkedin" viewBox="0 0 32 32"><path d="M31.992 32v-.001H32V20.263c0-5.741-1.236-10.164-7.948-10.164-3.227 0-5.392 1.771-6.276 3.449h-.093v-2.913h-6.364v21.364h6.627V21.42c0-2.785.528-5.479 3.977-5.479 3.399 0 3.449 3.179 3.449 5.657v10.401h6.62zM.528 10.636h6.635V32H.528V10.636zM3.843 0C1.722 0 0 1.721 0 3.843s1.721 3.879 3.843 3.879c2.121 0 3.843-1.757 3.843-3.879A3.846 3.846 0 0 0 3.843 0z"/></symbol><symbol id="icon-github" viewBox="0 0 32 32"><path d="M16 5.343c-6.196 0-11.219 5.023-11.219 11.219 0 4.957 3.214 9.162 7.673 10.645.561.103.766-.244.766-.54 0-.267-.01-1.152-.016-2.088-3.12.678-3.779-1.323-3.779-1.323-.511-1.296-1.246-1.641-1.246-1.641-1.02-.696.077-.682.077-.682 1.126.078 1.72 1.156 1.72 1.156 1.001 1.715 2.627 1.219 3.265.931.102-.723.392-1.219.712-1.498-2.49-.283-5.11-1.246-5.11-5.545 0-1.226.438-2.225 1.154-3.011-.114-.285-.501-1.426.111-2.97 0 0 .941-.301 3.085 1.15.894-.25 1.854-.373 2.807-.377.953.004 1.913.129 2.809.379 2.14-1.453 3.083-1.15 3.083-1.15.613 1.545.227 2.685.112 2.969.719.785 1.153 1.785 1.153 3.011 0 4.31-2.624 5.259-5.123 5.537.404.348.761 1.03.761 2.076 0 1.5-.015 2.709-.015 3.079 0 .299.204.648.772.538 4.455-1.486 7.666-5.69 7.666-10.645 0-6.195-5.023-11.219-11.219-11.219z"/></symbol><symbol id="icon-close" viewBox="0 0 32 32"><path d="M32 3.223 28.777 0 16 12.777 3.223 0 0 3.223 12.777 16 0 28.777 3.223 32 16 19.223 28.777 32 32 28.777 19.223 16 32 3.223z"/><symbol id="icon-sun" viewBox="0 0 32 32"><path fill="none" stroke="#fff" style="stroke:var(--color1,#fff)" stroke-linejoin="round" stroke-linecap="round" stroke-width="2" d="M16 26c5.523 0 10-4.477 10-10S21.523 6 16 6 6 10.477 6 16s4.477 10 10 10z"/><path fill="none" stroke="#fff" style="stroke:var(--color1,#fff)" stroke-linejoin="round" stroke-linecap="round" stroke-width="3" d="m25.814 6.186.182-.182M6.004 25.996l.182-.182M16 2.112V2m0 28v-.112M2.112 16H2m28 0h-.112M6.186 6.186l-.182-.182m19.992 19.992-.182-.182"/></symbol><symbol id="icon-moon" viewBox="0 0 32 32"><path fill="none" stroke="#fff" style="stroke:var(--color1,#fff)" stroke-linejoin="round" stroke-linecap="round" stroke-width="2.133" d="M2.189 16.585c.515 7.14 6.772 12.948 14.261 13.267 5.283.222 10.008-2.163 12.843-5.92 1.174-1.539.544-2.565-1.417-2.218-.959.166-1.947.236-2.978.194-7.002-.277-12.729-5.947-12.757-12.643a11.998 11.998 0 0 1 1.074-5.06c.773-1.719-.157-2.537-1.947-1.802-5.67 2.315-9.55 7.847-9.078 14.182z"/></symbol><symbol id="icon-btnsun" viewBox="0 0 32 32"><path d="M27.292 4.708c-6.26-6.26-16.391-6.28-22.627-.043s-6.217 16.367.043 22.627c6.26 6.26 16.391 6.28 22.627.043s6.217-16.367-.043-22.627z"/><path stroke-linecap="round" stroke-width="2.133" d="M6.797 6.354c-5.118 5.47-5.099 14.358.043 19.853"/></symbol><symbol id="icon-btnmoon" viewBox="0 0 32 32"><path d="M4.708 4.708c6.26-6.26 16.391-6.28 22.627-.043s6.217 16.367-.043 22.627c-6.26 6.26-16.391 6.28-22.627.043s-6.217-16.367.043-22.627z"/><path stroke-linecap="round" stroke-width="2.133" d="M25.203 6.354c5.118 5.47 5.099 14.358-.043 19.853"/></symbol><symbol id="icon-circle-right" viewBox="0 0 32 32"><path d="M16 0C7.163 0 0 7.163 0 16s7.163 16 16 16 16-7.163 16-16S24.837 0 16 0zm0 29C8.82 29 3 23.18 3 16S8.82 3 16 3s13 5.82 13 13-5.82 13-13 13z"/><path d="m11.086 22.086 2.829 2.829 8.914-8.914-8.914-8.914-2.828 2.828 6.086 6.086z"/></symbol><symbol id="icon-ratingStar" viewBox="0 0 36 32"><path stroke-linejoin="round" stroke-width="2" d="M33.75 12.626H21.656L18 1.376l-3.656 11.25H2.25l9.844 6.75-3.798 11.248L18 23.594l9.704 7.03-3.798-11.248 9.844-6.752z"/></symbol></symbol></defs></svg>