<svg aria-hidden="true" style="position: absolute; width: 0; height: 0; overflow: hidden;" version="1.1" xmlns="http://www.w3.org/2000/svg" xmlns:xlink="http://www.w3.org/1999/xlink">
<defs>
<symbol id="icon-close-outline" viewBox="0 0 32 32">
<path fill="none" stroke="#f8f8f8" style="stroke: var(--color1, #f8f8f8)" stroke-linejoin="round" stroke-linecap="round" stroke-miterlimit="4" stroke-width="1.3333" d="M23 23l-14-14M23 9l-14 14"></path>
</symbol>
<symbol id="icon-moon" viewBox="0 0 32 32">
<path fill="none" stroke="#fff" style="stroke: var(--color2, #fff)" stroke-linejoin="round" stroke-linecap="round" stroke-miterlimit="4" stroke-width="2.1333" d="M2.189 16.585c0.515 7.14 6.772 12.948 14.261 13.267 5.283 0.222 10.008-2.163 12.843-5.92 1.174-1.539 0.544-2.565-1.417-2.218-0.959 0.166-1.947 0.236-2.978 0.194-7.002-0.277-12.729-5.947-12.757-12.643-0.014-1.802 0.372-3.507 1.074-5.060 0.773-1.719-0.157-2.537-1.947-1.802-5.67 2.315-9.55 7.847-9.078 14.182z"></path>
</symbol>
<symbol id="icon-search" viewBox="0 0 32 32">
<path fill="none" stroke="#fff" style="stroke: var(--color2, #fff)" stroke-linejoin="round" stroke-linecap="round" stroke-miterlimit="4" stroke-width="2.0800" d="M14.667 25.333c5.891 0 10.667-4.776 10.667-10.667s-4.776-10.667-10.667-10.667c-5.891 0-10.667 4.776-10.667 10.667s4.776 10.667 10.667 10.667z"></path>
<path fill="none" stroke="#fff" style="stroke: var(--color2, #fff)" stroke-linejoin="round" stroke-linecap="round" stroke-miterlimit="4" stroke-width="2.0800" d="M28 28l-5.8-5.8"></path>
</symbol>
<symbol id="icon-star" viewBox="0 0 32 32">
<path d="M24.626 30.001c-0.21 0.001-0.416-0.065-0.587-0.188l-8.038-5.827-8.038 5.827c-0.172 0.125-0.379 0.191-0.591 0.191s-0.419-0.069-0.589-0.195c-0.171-0.126-0.297-0.303-0.361-0.505s-0.061-0.42 0.007-0.621l3.135-9.286-8.125-5.572c-0.176-0.121-0.309-0.294-0.379-0.496s-0.074-0.42-0.011-0.624c0.063-0.204 0.189-0.382 0.361-0.509s0.379-0.196 0.592-0.196h10.024l3.025-9.309c0.065-0.201 0.192-0.376 0.363-0.5s0.377-0.191 0.588-0.191c0.211 0 0.417 0.067 0.588 0.191s0.298 0.299 0.363 0.5l3.025 9.313h10.024c0.214-0 0.422 0.068 0.594 0.195s0.299 0.305 0.362 0.509c0.063 0.204 0.059 0.423-0.011 0.625s-0.203 0.376-0.379 0.496l-8.128 5.569 3.133 9.283c0.051 0.15 0.065 0.31 0.042 0.467s-0.084 0.306-0.176 0.435c-0.092 0.129-0.214 0.234-0.355 0.307s-0.297 0.111-0.456 0.111z"></path>
</symbol>
<symbol id="icon-chevron-down" viewBox="0 0 32 32">
<path fill="none" stroke="#fff" style="stroke: var(--color1, #fff)" stroke-linejoin="round" stroke-linecap="round" stroke-miterlimit="4" stroke-width="2" d="M7 11.5l9 9 9-9"></path>
</symbol>
</defs>
</svg>
