<svg aria-hidden="true" style="position: absolute; width: 0; height: 0; overflow: hidden;" version="1.1" xmlns="http://www.w3.org/2000/svg" xmlns:xlink="http://www.w3.org/1999/xlink">
<defs>
<symbol id="icon-close-outline" viewBox="0 0 32 32">
<path stroke-linejoin="round" stroke-linecap="round" stroke-miterlimit="4" stroke-width="1.3333" d="M23 23l-14-14M23 9l-14 14"></path>
</symbol>
<symbol id="icon-moon" viewBox="0 0 32 32">
<path fill="none" stroke="#fff" style="stroke: var(--color2, #fff)" stroke-linejoin="round" stroke-linecap="round" stroke-miterlimit="4" stroke-width="2.1333" d="M2.189 16.585c0.515 7.14 6.772 12.948 14.261 13.267 5.283 0.222 10.008-2.163 12.843-5.92 1.174-1.539 0.544-2.565-1.417-2.218-0.959 0.166-1.947 0.236-2.978 0.194-7.002-0.277-12.729-5.947-12.757-12.643-0.014-1.802 0.372-3.507 1.074-5.060 0.773-1.719-0.157-2.537-1.947-1.802-5.67 2.315-9.55 7.847-9.078 14.182z"></path>
</symbol>
<symbol id="icon-search" viewBox="0 0 32 32">
<path fill="none"  style="stroke: var(--color2, #fff)" stroke-linejoin="round" stroke-linecap="round" stroke-miterlimit="4" stroke-width="2.0800" d="M14.667 25.333c5.891 0 10.667-4.776 10.667-10.667s-4.776-10.667-10.667-10.667c-5.891 0-10.667 4.776-10.667 10.667s4.776 10.667 10.667 10.667z"></path>
<path fill="none"  style="stroke: var(--color2, #fff)" stroke-linejoin="round" stroke-linecap="round" stroke-miterlimit="4" stroke-width="2.0800" d="M28 28l-5.8-5.8"></path>
</symbol>
<symbol id="icon-star" viewBox="0 0 32 32">
<path d="M24.626 30.001c-0.21 0.001-0.416-0.065-0.587-0.188l-8.038-5.827-8.038 5.827c-0.172 0.125-0.379 0.191-0.591 0.191s-0.419-0.069-0.589-0.195c-0.171-0.126-0.297-0.303-0.361-0.505s-0.061-0.42 0.007-0.621l3.135-9.286-8.125-5.572c-0.176-0.121-0.309-0.294-0.379-0.496s-0.074-0.42-0.011-0.624c0.063-0.204 0.189-0.382 0.361-0.509s0.379-0.196 0.592-0.196h10.024l3.025-9.309c0.065-0.201 0.192-0.376 0.363-0.5s0.377-0.191 0.588-0.191c0.211 0 0.417 0.067 0.588 0.191s0.298 0.299 0.363 0.5l3.025 9.313h10.024c0.214-0 0.422 0.068 0.594 0.195s0.299 0.305 0.362 0.509c0.063 0.204 0.059 0.423-0.011 0.625s-0.203 0.376-0.379 0.496l-8.128 5.569 3.133 9.283c0.051 0.15 0.065 0.31 0.042 0.467s-0.084 0.306-0.176 0.435c-0.092 0.129-0.214 0.234-0.355 0.307s-0.297 0.111-0.456 0.111z"></path>
</symbol>
<symbol id="icon-chevron-down" viewBox="0 0 32 32">
<path fill="none" stroke="#fff" style="stroke: var(--color1, #fff)" stroke-linejoin="round" stroke-linecap="round" stroke-miterlimit="4" stroke-width="2" d="M7 11.5l9 9 9-9"></path>
</symbol>
<symbol id="icon-favorite" viewBox="0 0 34 32"> 
<path fill="#f87719" style="fill: var(--color1, #f87719)" d="M17.231 31.705l-2.412-2.412c-8.96-7.926-14.818-13.268-14.818-19.815 0-5.342 4.135-9.477 9.477-9.477 2.929 0 5.858 1.378 7.754 3.618 1.895-2.24 4.825-3.618 7.754-3.618 5.342 0 9.477 4.135 9.477 9.477 0 6.548-5.858 11.889-14.818 19.815l-2.412 2.412z"></path> 
</symbol>
<symbol id="icon-linkedin" viewBox="0 0 32 32">
<path d="M31.992 32v-.001H32V20.263c0-5.741-1.236-10.164-7.948-10.164-3.227 0-5.392 1.771-6.276 3.449h-.093v-2.913h-6.364v21.364h6.627V21.42c0-2.785.528-5.479 3.977-5.479 3.399 0 3.449 3.179 3.449 5.657v10.401h6.62zM.528 10.636h6.635V32H.528V10.636zM3.843 0C1.722 0 0 1.721 0 3.843s1.721 3.879 3.843 3.879c2.121 0 3.843-1.757 3.843-3.879A3.846 3.846 0 0 0 3.843 0z"/>
</symbol>
<symbol id="icon-github" viewBox="0 0 32 32">
<path d="M16 5.343c-6.196 0-11.219 5.023-11.219 11.219 0 4.957 3.214 9.162 7.673 10.645 0.561 0.103 0.766-0.244 0.766-0.54 0-0.267-0.010-1.152-0.016-2.088-3.12 0.678-3.779-1.323-3.779-1.323-0.511-1.296-1.246-1.641-1.246-1.641-1.020-0.696 0.077-0.682 0.077-0.682 1.126 0.078 1.72 1.156 1.72 1.156 1.001 1.715 2.627 1.219 3.265 0.931 0.102-0.723 0.392-1.219 0.712-1.498-2.49-0.283-5.11-1.246-5.11-5.545 0-1.226 0.438-2.225 1.154-3.011-0.114-0.285-0.501-1.426 0.111-2.97 0 0 0.941-0.301 3.085 1.15 0.894-0.25 1.854-0.373 2.807-0.377 0.953 0.004 1.913 0.129 2.809 0.379 2.14-1.453 3.083-1.15 3.083-1.15 0.613 1.545 0.227 2.685 0.112 2.969 0.719 0.785 1.153 1.785 1.153 3.011 0 4.31-2.624 5.259-5.123 5.537 0.404 0.348 0.761 1.030 0.761 2.076 0 1.5-0.015 2.709-0.015 3.079 0 0.299 0.204 0.648 0.772 0.538 4.455-1.486 7.666-5.69 7.666-10.645 0-6.195-5.023-11.219-11.219-11.219z"></path>
</symbol>
<symbol id="icon-close" viewBox="0 0 32 32">
<path d="M32 3.223l-3.223-3.223-12.777 12.777-12.777-12.777-3.223 3.223 12.777 12.777-12.777 12.777 3.223 3.223 12.777-12.777 12.777 12.777 3.223-3.223-12.777-12.777 12.777-12.777z"></path>
<symbol id="icon-sun" viewBox="0 0 32 32">
<path fill="none" stroke="#fff" style="stroke: var(--color1, #fff)" stroke-linejoin="round" stroke-linecap="round" stroke-miterlimit="4" stroke-width="2" d="M16 26c5.523 0 10-4.477 10-10s-4.477-10-10-10c-5.523 0-10 4.477-10 10s4.477 10 10 10z"></path>
<path fill="none" stroke="#fff" style="stroke: var(--color1, #fff)" stroke-linejoin="round" stroke-linecap="round" stroke-miterlimit="4" stroke-width="3" d="M25.814 6.186l0.182-0.182M6.004 25.996l0.182-0.182M16 2.112v-0.112M16 30v-0.112M2.112 16h-0.112M30 16h-0.112M6.186 6.186l-0.182-0.182M25.996 25.996l-0.182-0.182"></path>
</symbol>
<symbol id="icon-moon" viewBox="0 0 32 32">
<path fill="none" stroke="#fff" style="stroke: var(--color1, #fff)" stroke-linejoin="round" stroke-linecap="round" stroke-miterlimit="4" stroke-width="2.1333" d="M2.189 16.585c0.515 7.14 6.772 12.948 14.261 13.267 5.283 0.222 10.008-2.163 12.843-5.92 1.174-1.539 0.544-2.565-1.417-2.218-0.959 0.166-1.947 0.236-2.978 0.194-7.002-0.277-12.729-5.947-12.757-12.643-0.014-1.802 0.372-3.507 1.074-5.060 0.773-1.719-0.157-2.537-1.947-1.802-5.67 2.315-9.55 7.847-9.078 14.182z"></path>
</symbol>
<symbol id="icon-btnsun" viewBox="0 0 32 32">
<path d="M27.292 4.708c-6.26-6.26-16.391-6.28-22.627-0.043s-6.217 16.367 0.043 22.627c6.26 6.26 16.391 6.28 22.627 0.043s6.217-16.367-0.043-22.627z"></path>
<path stroke-linejoin="miter" stroke-linecap="round" stroke-miterlimit="4" stroke-width="2.1333" d="M6.797 6.354c-5.118 5.47-5.099 14.358 0.043 19.853"></path>
</symbol>
<symbol id="icon-btnmoon" viewBox="0 0 32 32">
<path d="M4.708 4.708c6.26-6.26 16.391-6.28 22.627-0.043s6.217 16.367-0.043 22.627c-6.26 6.26-16.391 6.28-22.627 0.043s-6.217-16.367 0.043-22.627z"></path>
<path stroke-linejoin="miter" stroke-linecap="round" stroke-miterlimit="4" stroke-width="2.1333" d="M25.203 6.354c5.118 5.47 5.099 14.358-0.043 19.853"></path>
</symbol>
<symbol id="icon-circle-right" viewBox="0 0 32 32">
<path d="M16 0c-8.837 0-16 7.163-16 16s7.163 16 16 16 16-7.163 16-16-7.163-16-16-16zM16 29c-7.18 0-13-5.82-13-13s5.82-13 13-13 13 5.82 13 13-5.82 13-13 13z"></path>
<path d="M11.086 22.086l2.829 2.829 8.914-8.914-8.914-8.914-2.828 2.828 6.086 6.086z"></path>
</symbol>
<symbol id="icon-ratingStar" viewBox="0 0 36 32">
<path stroke-linejoin="round" stroke-linecap="butt" stroke-miterlimit="4" stroke-width="2" d="M33.75 12.626h-12.094l-3.656-11.25-3.656 11.25h-12.094l9.844 6.75-3.798 11.248 9.704-7.030 9.704 7.030-3.798-11.248 9.844-6.752z"></path>
</symbol>
</defs>
</svg>
